<svg width="263" height="257" viewBox="0 0 263 257" fill="none" xmlns="http://www.w3.org/2000/svg">
<path d="M259 3.62695L25 225.627M243.5 225.627H25V3.62695" stroke="#0A0905" stroke-width="10"/>
<path d="M12.25 23.397V25.674H4V23.397H12.25ZM12.25 29.887V32.175H4V29.887H12.25ZM9.203 24.673V30.833H7.179V24.673H9.203ZM4 41.3455L6.266 41.0595L7.135 41.3565L8.004 41.0595L10.281 41.3455V43.6775L7.146 43.2815L4 43.6775V41.3455ZM7.135 41.8735C6.673 41.8002 6.15967 41.5912 5.595 41.2465C4.94967 40.8432 4.51333 40.4655 4.286 40.1135C3.978 39.6442 3.824 39.1125 3.824 38.5185C3.824 37.9025 3.95967 37.3598 4.231 36.8905C4.50967 36.4285 4.89833 36.0655 5.397 35.8015C5.903 35.5375 6.48233 35.4055 7.135 35.4055C7.80233 35.4055 8.38533 35.5375 8.884 35.8015C9.38267 36.0655 9.77133 36.4285 10.05 36.8905C10.3287 37.3598 10.468 37.9025 10.468 38.5185C10.468 39.0905 10.314 39.6258 10.006 40.1245C9.75667 40.5352 9.32767 40.9275 8.719 41.3015C8.24233 41.6022 7.71433 41.7928 7.135 41.8735ZM7.135 37.6825C6.827 37.6825 6.552 37.7448 6.31 37.8695C6.068 38.0015 5.87733 38.1812 5.738 38.4085C5.606 38.6358 5.54 38.8962 5.54 39.1895C5.54 39.4975 5.606 39.7872 5.738 40.0585C5.87733 40.3298 6.068 40.5682 6.31 40.7735C6.552 40.9788 6.827 41.1328 7.135 41.2355C7.45033 41.1328 7.729 40.9788 7.971 40.7735C8.213 40.5682 8.40367 40.3298 8.543 40.0585C8.68233 39.7872 8.752 39.4975 8.752 39.1895C8.752 38.8962 8.68233 38.6358 8.543 38.4085C8.40367 38.1812 8.213 38.0015 7.971 37.8695C7.729 37.7448 7.45033 37.6825 7.135 37.6825ZM10.281 54.3714H4V52.1164H9.632L8.609 53.1504V48.1784L9.632 49.2124H4V46.9574H10.281V54.3714ZM10.281 57.8049V60.0599H8.477L8.213 59.9609H6.453L5.936 60.0599H2.185V57.8049H10.281ZM7.135 59.3449C7.58233 59.4035 8.11033 59.6199 8.719 59.9939C9.23233 60.3019 9.65767 60.6905 9.995 61.1599C10.3103 61.5925 10.468 62.1059 10.468 62.6999C10.468 63.3159 10.3287 63.8549 10.05 64.3169C9.77133 64.7862 9.38267 65.1492 8.884 65.4059C8.38533 65.6699 7.80233 65.8019 7.135 65.8019C6.48233 65.8019 5.903 65.6699 5.397 65.4059C4.89833 65.1492 4.50967 64.7862 4.231 64.3169C3.95967 63.8549 3.824 63.3159 3.824 62.6999C3.824 62.1059 3.97067 61.5889 4.264 61.1489C4.56467 60.7162 4.96433 60.3495 5.463 60.0489C6.123 59.6455 6.68033 59.4109 7.135 59.3449ZM7.135 63.5359C7.45033 63.5359 7.729 63.4699 7.971 63.3379C8.213 63.2132 8.40367 63.0335 8.543 62.7989C8.68233 62.5715 8.752 62.3112 8.752 62.0179C8.752 61.7172 8.68233 61.4312 8.543 61.1599C8.40367 60.8885 8.213 60.6502 7.971 60.4449C7.729 60.2395 7.45033 60.0819 7.135 59.9719C6.827 60.0819 6.552 60.2395 6.31 60.4449C6.068 60.6502 5.87733 60.8885 5.738 61.1599C5.606 61.4312 5.54 61.7172 5.54 62.0179C5.54 62.3112 5.606 62.5715 5.738 62.7989C5.87733 63.0335 6.068 63.2132 6.31 63.3379C6.552 63.4699 6.827 63.5359 7.135 63.5359ZM4 74.6506L6.266 74.3646L7.135 74.6616L8.004 74.3646L10.281 74.6506V76.9826L7.146 76.5866L4 76.9826V74.6506ZM7.135 75.1786C6.673 75.1053 6.15967 74.8963 5.595 74.5516C4.94967 74.1483 4.51333 73.7706 4.286 73.4186C3.978 72.9493 3.824 72.4176 3.824 71.8236C3.824 71.2076 3.95967 70.6649 4.231 70.1956C4.50967 69.7336 4.89833 69.3706 5.397 69.1066C5.903 68.8426 6.48233 68.7106 7.135 68.7106C7.80233 68.7106 8.38533 68.8426 8.884 69.1066C9.38267 69.3706 9.77133 69.7336 10.05 70.1956C10.3287 70.6649 10.468 71.2076 10.468 71.8236C10.468 72.3956 10.314 72.9309 10.006 73.4296C9.75667 73.8403 9.32767 74.2326 8.719 74.6066C8.24233 74.9073 7.71433 75.0979 7.135 75.1786ZM7.135 70.9876C6.827 70.9876 6.552 71.0499 6.31 71.1746C6.068 71.3066 5.87733 71.4863 5.738 71.7136C5.606 71.9409 5.54 72.2013 5.54 72.4946C5.54 72.8026 5.606 73.0923 5.738 73.3636C5.87733 73.6349 6.068 73.8733 6.31 74.0786C6.552 74.2839 6.827 74.4379 7.135 74.5406C7.45033 74.4379 7.729 74.2839 7.971 74.0786C8.213 73.8733 8.40367 73.6349 8.543 73.3636C8.68233 73.0923 8.752 72.8026 8.752 72.4946C8.752 72.2013 8.68233 71.9409 8.543 71.7136C8.40367 71.4863 8.213 71.3066 7.971 71.1746C7.729 71.0499 7.45033 70.9876 7.135 70.9876ZM4 80.1085L7.146 80.5045L10.281 80.1085V85.2235C10.281 85.8322 10.138 86.3162 9.852 86.6755C9.57333 87.0348 9.192 87.2145 8.708 87.2145C8.25333 87.2145 7.883 87.0312 7.597 86.6645C7.31833 86.3052 7.146 85.8065 7.08 85.1685L7.443 85.3115C7.41367 86.0522 7.256 86.6168 6.97 87.0055C6.684 87.4015 6.288 87.5995 5.782 87.5995C5.23933 87.5995 4.80667 87.3978 4.484 86.9945C4.16133 86.5912 4 86.0485 4 85.3665V80.1085ZM4.473 82.2755L5.397 81.4065V84.6185C5.397 84.8605 5.44833 85.0402 5.551 85.1575C5.661 85.2822 5.81133 85.3445 6.002 85.3445C6.178 85.3445 6.321 85.2785 6.431 85.1465C6.54833 85.0218 6.607 84.8202 6.607 84.5415V81.8465H7.773V84.2775C7.773 84.5048 7.82433 84.6772 7.927 84.7945C8.02967 84.9118 8.16533 84.9705 8.334 84.9705C8.50267 84.9705 8.63833 84.9155 8.741 84.8055C8.84367 84.7028 8.895 84.5415 8.895 84.3215V81.4175L9.808 82.2755L7.146 82.6385L4.473 82.2755ZM10.281 91.769V98.589H4V96.334H9.643L8.609 97.368V92.891L9.478 93.837C9.04533 93.881 8.653 93.914 8.301 93.936C7.949 93.958 7.63367 93.969 7.355 93.969C6.123 93.969 5.232 93.7783 4.682 93.397C4.13933 93.023 3.868 92.4143 3.868 91.571C3.868 91.3217 3.89367 91.087 3.945 90.867C3.99633 90.647 4.08067 90.4307 4.198 90.218H5.793C5.74167 90.35 5.70133 90.4783 5.672 90.603C5.65 90.735 5.639 90.8523 5.639 90.955C5.639 91.3143 5.79667 91.5673 6.112 91.714C6.42733 91.8607 6.94433 91.934 7.663 91.934C8.00767 91.934 8.39633 91.9193 8.829 91.89C9.269 91.868 9.753 91.8277 10.281 91.769ZM3.824 105.707C3.824 104.944 3.96333 104.262 4.242 103.661C4.52067 103.067 4.90933 102.598 5.408 102.253C5.914 101.908 6.50067 101.736 7.168 101.736C7.82067 101.736 8.39267 101.901 8.884 102.231C9.38267 102.561 9.77133 103.012 10.05 103.584C10.3287 104.163 10.468 104.816 10.468 105.542C10.468 106.297 10.303 106.939 9.973 107.467C9.65033 108.002 9.192 108.413 8.598 108.699C8.004 108.992 7.30367 109.139 6.497 109.139V103.551H7.85V107.874L7.377 107.137C7.69967 107.108 7.971 107.027 8.191 106.895C8.41833 106.763 8.59067 106.587 8.708 106.367C8.82533 106.154 8.884 105.898 8.884 105.597C8.884 105.267 8.818 104.985 8.686 104.75C8.554 104.515 8.37067 104.332 8.136 104.2C7.90867 104.068 7.641 104.002 7.333 104.002C6.937 104.002 6.59967 104.09 6.321 104.266C6.04967 104.449 5.84067 104.713 5.694 105.058C5.54733 105.41 5.474 105.839 5.474 106.345C5.474 106.807 5.53267 107.265 5.65 107.72C5.77467 108.182 5.947 108.6 6.167 108.974H4.737C4.44367 108.541 4.21633 108.046 4.055 107.489C3.901 106.939 3.824 106.345 3.824 105.707ZM10.281 112.3V114.544H4V112.3H10.281ZM10.281 117.514V119.758H4V117.514H10.281ZM8.048 113.598V118.361H6.376V113.598H8.048ZM4 123.19H10.281V125.412H5.221L5.375 124.928L10.281 128.217V131.099H4V128.888H9.203L9.038 129.372L4 125.995V123.19ZM3.824 138.228C3.824 137.465 3.96333 136.783 4.242 136.182C4.52067 135.588 4.90933 135.118 5.408 134.774C5.914 134.429 6.50067 134.257 7.168 134.257C7.82067 134.257 8.39267 134.422 8.884 134.752C9.38267 135.082 9.77133 135.533 10.05 136.105C10.3287 136.684 10.468 137.337 10.468 138.063C10.468 138.818 10.303 139.46 9.973 139.988C9.65033 140.523 9.192 140.934 8.598 141.22C8.004 141.513 7.30367 141.66 6.497 141.66V136.072H7.85V140.395L7.377 139.658C7.69967 139.628 7.971 139.548 8.191 139.416C8.41833 139.284 8.59067 139.108 8.708 138.888C8.82533 138.675 8.884 138.418 8.884 138.118C8.884 137.788 8.818 137.505 8.686 137.271C8.554 137.036 8.37067 136.853 8.136 136.721C7.90867 136.589 7.641 136.523 7.333 136.523C6.937 136.523 6.59967 136.611 6.321 136.787C6.04967 136.97 5.84067 137.234 5.694 137.579C5.54733 137.931 5.474 138.36 5.474 138.866C5.474 139.328 5.53267 139.786 5.65 140.241C5.77467 140.703 5.947 141.121 6.167 141.495H4.737C4.44367 141.062 4.21633 140.567 4.055 140.01C3.901 139.46 3.824 138.866 3.824 138.228ZM10.281 149.749V151.993H4V149.749H10.281ZM10.281 154.963V157.207H4V154.963H10.281ZM8.048 151.047V155.81H6.376V151.047H8.048ZM4 166.316L6.266 166.03L7.135 166.327L8.004 166.03L10.281 166.316V168.648L7.146 168.252L4 168.648V166.316ZM7.135 166.844C6.673 166.771 6.15967 166.562 5.595 166.217C4.94967 165.814 4.51333 165.436 4.286 165.084C3.978 164.615 3.824 164.083 3.824 163.489C3.824 162.873 3.95967 162.33 4.231 161.861C4.50967 161.399 4.89833 161.036 5.397 160.772C5.903 160.508 6.48233 160.376 7.135 160.376C7.80233 160.376 8.38533 160.508 8.884 160.772C9.38267 161.036 9.77133 161.399 10.05 161.861C10.3287 162.33 10.468 162.873 10.468 163.489C10.468 164.061 10.314 164.596 10.006 165.095C9.75667 165.506 9.32767 165.898 8.719 166.272C8.24233 166.573 7.71433 166.763 7.135 166.844ZM7.135 162.653C6.827 162.653 6.552 162.715 6.31 162.84C6.068 162.972 5.87733 163.152 5.738 163.379C5.606 163.606 5.54 163.867 5.54 164.16C5.54 164.468 5.606 164.758 5.738 165.029C5.87733 165.3 6.068 165.539 6.31 165.744C6.552 165.949 6.827 166.103 7.135 166.206C7.45033 166.103 7.729 165.949 7.971 165.744C8.213 165.539 8.40367 165.3 8.543 165.029C8.68233 164.758 8.752 164.468 8.752 164.16C8.752 163.867 8.68233 163.606 8.543 163.379C8.40367 163.152 8.213 162.972 7.971 162.84C7.729 162.715 7.45033 162.653 7.135 162.653ZM4 171.928H10.281V174.15H5.221L5.375 173.666L10.281 176.955V179.837H4V177.626H9.203L9.038 178.11L4 174.733V171.928ZM10.809 175.822C10.809 175.052 10.9923 174.436 11.359 173.974C11.733 173.512 12.2683 173.226 12.965 173.116V174.832C12.679 174.89 12.459 175.004 12.305 175.173C12.151 175.341 12.074 175.558 12.074 175.822C12.074 176.086 12.151 176.302 12.305 176.471C12.459 176.639 12.679 176.749 12.965 176.801V178.528C12.2683 178.418 11.733 178.128 11.359 177.659C10.9923 177.197 10.809 176.584 10.809 175.822ZM5.672 192.223H2.493V190.287H4V184.798H2.493V182.862H5.672V184.754L5.639 185.172V189.726L5.672 190.111V192.223ZM10.281 184.171V191.079H4.429V188.846H9.676L8.653 189.869V185.271L9.467 186.107C9.16633 186.21 8.88033 186.272 8.609 186.294C8.345 186.316 8.103 186.327 7.883 186.327C6.871 186.327 6.08267 186.155 5.518 185.81C4.96067 185.465 4.682 184.981 4.682 184.358L5.452 183.445C5.848 184.017 6.80867 184.303 8.334 184.303C8.62733 184.303 8.939 184.292 9.269 184.27C9.599 184.248 9.93633 184.215 10.281 184.171ZM3.824 198.855C3.824 198.092 3.96333 197.41 4.242 196.809C4.52067 196.215 4.90933 195.745 5.408 195.401C5.914 195.056 6.50067 194.884 7.168 194.884C7.82067 194.884 8.39267 195.049 8.884 195.379C9.38267 195.709 9.77133 196.16 10.05 196.732C10.3287 197.311 10.468 197.964 10.468 198.69C10.468 199.445 10.303 200.087 9.973 200.615C9.65033 201.15 9.192 201.561 8.598 201.847C8.004 202.14 7.30367 202.287 6.497 202.287V196.699H7.85V201.022L7.377 200.285C7.69967 200.255 7.971 200.175 8.191 200.043C8.41833 199.911 8.59067 199.735 8.708 199.515C8.82533 199.302 8.884 199.045 8.884 198.745C8.884 198.415 8.818 198.132 8.686 197.898C8.554 197.663 8.37067 197.48 8.136 197.348C7.90867 197.216 7.641 197.15 7.333 197.15C6.937 197.15 6.59967 197.238 6.321 197.414C6.04967 197.597 5.84067 197.861 5.694 198.206C5.54733 198.558 5.474 198.987 5.474 199.493C5.474 199.955 5.53267 200.413 5.65 200.868C5.77467 201.33 5.947 201.748 6.167 202.122H4.737C4.44367 201.689 4.21633 201.194 4.055 200.637C3.901 200.087 3.824 199.493 3.824 198.855ZM10.281 205.448V207.692H4V205.448H10.281ZM10.281 210.662V212.906H4V210.662H10.281ZM8.048 206.746V211.509H6.376V206.746H8.048ZM3.824 220.078C3.824 219.271 3.95967 218.567 4.231 217.966C4.50967 217.365 4.89833 216.895 5.397 216.558C5.903 216.221 6.48233 216.052 7.135 216.052C7.80233 216.052 8.38533 216.221 8.884 216.558C9.38267 216.895 9.77133 217.365 10.05 217.966C10.3287 218.567 10.468 219.271 10.468 220.078C10.468 220.877 10.3287 221.578 10.05 222.179C9.77133 222.788 9.38267 223.261 8.884 223.598C8.38533 223.935 7.80233 224.104 7.135 224.104C6.48233 224.104 5.903 223.935 5.397 223.598C4.89833 223.261 4.50967 222.788 4.231 222.179C3.95967 221.578 3.824 220.877 3.824 220.078ZM5.485 220.078C5.485 220.445 5.551 220.756 5.683 221.013C5.815 221.277 6.00567 221.479 6.255 221.618C6.50433 221.757 6.79767 221.827 7.135 221.827C7.487 221.827 7.784 221.757 8.026 221.618C8.27533 221.479 8.466 221.277 8.598 221.013C8.73 220.756 8.796 220.445 8.796 220.078C8.796 219.711 8.73 219.396 8.598 219.132C8.466 218.868 8.27533 218.666 8.026 218.527C7.784 218.388 7.49067 218.318 7.146 218.318C6.80133 218.318 6.50433 218.388 6.255 218.527C6.00567 218.666 5.815 218.868 5.683 219.132C5.551 219.396 5.485 219.711 5.485 220.078ZM3.89 228.22C3.89 227.985 3.945 227.769 4.055 227.571C4.165 227.38 4.31533 227.23 4.506 227.12C4.704 227.01 4.92033 226.955 5.155 226.955C5.38967 226.955 5.60233 227.01 5.793 227.12C5.98367 227.23 6.134 227.38 6.244 227.571C6.36133 227.769 6.42 227.985 6.42 228.22C6.42 228.462 6.36133 228.678 6.244 228.869C6.134 229.059 5.98367 229.21 5.793 229.32C5.60233 229.43 5.38967 229.485 5.155 229.485C4.92033 229.485 4.704 229.43 4.506 229.32C4.31533 229.21 4.165 229.059 4.055 228.869C3.945 228.678 3.89 228.462 3.89 228.22Z" fill="#0A0905"/>
<path d="M9.845 247.514C9.61767 248.247 9.34633 248.827 9.031 249.252C8.723 249.677 8.228 250.04 7.546 250.341C6.87133 250.642 6.094 250.792 5.214 250.792C4.25333 250.792 3.41367 250.612 2.695 250.253C1.97633 249.894 1.41533 249.391 1.012 248.746C0.616 248.101 0.418 247.349 0.418 246.491C0.418 245.633 0.616 244.881 1.012 244.236C1.41533 243.591 1.97633 243.088 2.695 242.729C3.41367 242.37 4.25333 242.19 5.214 242.19C6.094 242.19 6.87133 242.34 7.546 242.641C8.228 242.942 8.745 243.316 9.097 243.763C9.45633 244.21 9.724 244.793 9.9 245.512L7.656 245.82C7.58267 245.468 7.43967 245.171 7.227 244.929C7.01433 244.68 6.73567 244.489 6.391 244.357C6.05367 244.225 5.66133 244.159 5.214 244.159C4.70067 244.159 4.257 244.254 3.883 244.445C3.509 244.628 3.223 244.896 3.025 245.248C2.827 245.593 2.728 246.007 2.728 246.491C2.728 246.975 2.827 247.393 3.025 247.745C3.223 248.09 3.509 248.357 3.883 248.548C4.257 248.731 4.70067 248.823 5.214 248.823C5.66133 248.823 6.05367 248.761 6.391 248.636C6.73567 248.511 7.01433 248.324 7.227 248.075C7.43967 247.826 7.58267 247.521 7.656 247.162L9.845 247.514ZM13.8842 244.346H20.7042V250.627H18.4492V244.984L19.4832 246.018H15.0062L15.9522 245.149C15.9962 245.582 16.0292 245.974 16.0512 246.326C16.0732 246.678 16.0842 246.993 16.0842 247.272C16.0842 248.504 15.8936 249.395 15.5122 249.945C15.1382 250.488 14.5296 250.759 13.6862 250.759C13.4369 250.759 13.2022 250.733 12.9822 250.682C12.7622 250.631 12.5459 250.546 12.3332 250.429V248.834C12.4652 248.885 12.5936 248.926 12.7182 248.955C12.8502 248.977 12.9676 248.988 13.0702 248.988C13.4296 248.988 13.6826 248.83 13.8292 248.515C13.9759 248.2 14.0492 247.683 14.0492 246.964C14.0492 246.619 14.0346 246.231 14.0052 245.798C13.9832 245.358 13.9429 244.874 13.8842 244.346ZM27.8221 250.803C27.0594 250.803 26.3774 250.664 25.7761 250.385C25.1821 250.106 24.7128 249.718 24.3681 249.219C24.0234 248.713 23.8511 248.126 23.8511 247.459C23.8511 246.806 24.0161 246.234 24.3461 245.743C24.6761 245.244 25.1271 244.856 25.6991 244.577C26.2784 244.298 26.9311 244.159 27.6571 244.159C28.4124 244.159 29.0541 244.324 29.5821 244.654C30.1174 244.977 30.5281 245.435 30.8141 246.029C31.1074 246.623 31.2541 247.323 31.2541 248.13H25.6661V246.777H29.9891L29.2521 247.25C29.2228 246.927 29.1421 246.656 29.0101 246.436C28.8781 246.209 28.7021 246.036 28.4821 245.919C28.2694 245.802 28.0128 245.743 27.7121 245.743C27.3821 245.743 27.0998 245.809 26.8651 245.941C26.6304 246.073 26.4471 246.256 26.3151 246.491C26.1831 246.718 26.1171 246.986 26.1171 247.294C26.1171 247.69 26.2051 248.027 26.3811 248.306C26.5644 248.577 26.8284 248.786 27.1731 248.933C27.5251 249.08 27.9541 249.153 28.4601 249.153C28.9221 249.153 29.3804 249.094 29.8351 248.977C30.2971 248.852 30.7151 248.68 31.0891 248.46V249.89C30.6564 250.183 30.1614 250.411 29.6041 250.572C29.0541 250.726 28.4601 250.803 27.8221 250.803ZM43.3367 248.955V252.134H41.4007V250.627H35.9117V252.134H33.9757V248.955H35.8677L36.2857 248.988H40.8397L41.2247 248.955H43.3367ZM35.2847 244.346H42.1927V250.198H39.9597V244.951L40.9827 245.974H36.3847L37.2207 245.16C37.3234 245.461 37.3857 245.747 37.4077 246.018C37.4297 246.282 37.4407 246.524 37.4407 246.744C37.4407 247.756 37.2684 248.544 36.9237 249.109C36.5791 249.666 36.0951 249.945 35.4717 249.945L34.5587 249.175C35.1307 248.779 35.4167 247.818 35.4167 246.293C35.4167 246 35.4057 245.688 35.3837 245.358C35.3617 245.028 35.3287 244.691 35.2847 244.346ZM48.1793 252.618C47.7173 252.618 47.3066 252.559 46.9473 252.442C46.588 252.332 46.2396 252.16 45.9023 251.925V250.363C46.247 250.583 46.5696 250.741 46.8703 250.836C47.171 250.931 47.501 250.979 47.8603 250.979C48.161 250.979 48.4286 250.913 48.6633 250.781C48.898 250.649 49.0886 250.407 49.2353 250.055L51.6443 244.346H54.0313L51.0173 250.748C50.8046 251.21 50.5443 251.577 50.2363 251.848C49.9356 252.127 49.6093 252.325 49.2573 252.442C48.9053 252.559 48.546 252.618 48.1793 252.618ZM48.2563 250.044L45.5833 244.346H48.0583L50.4233 250.044H48.2563ZM63.9571 250.803C63.1651 250.803 62.4684 250.667 61.8671 250.396C61.2731 250.117 60.8111 249.729 60.4811 249.23C60.1511 248.724 59.9861 248.145 59.9861 247.492C59.9861 246.825 60.1511 246.242 60.4811 245.743C60.8111 245.244 61.2731 244.856 61.8671 244.577C62.4684 244.298 63.1651 244.159 63.9571 244.159C64.7491 244.159 65.4421 244.298 66.0361 244.577C66.6374 244.856 67.1031 245.244 67.4331 245.743C67.7704 246.242 67.9391 246.825 67.9391 247.492C67.9391 248.145 67.7704 248.724 67.4331 249.23C67.1031 249.729 66.6374 250.117 66.0361 250.396C65.4421 250.667 64.7491 250.803 63.9571 250.803ZM56.8621 250.627V244.346H59.1171V250.627H56.8621ZM58.1381 248.24V246.579H61.4491V248.24H58.1381ZM63.9571 249.142C64.3164 249.142 64.6208 249.076 64.8701 248.944C65.1268 248.812 65.3211 248.621 65.4531 248.372C65.5924 248.123 65.6621 247.826 65.6621 247.481C65.6621 247.136 65.5924 246.843 65.4531 246.601C65.3211 246.352 65.1268 246.161 64.8701 246.029C64.6208 245.897 64.3164 245.831 63.9571 245.831C63.5978 245.831 63.2898 245.897 63.0331 246.029C62.7764 246.161 62.5784 246.352 62.4391 246.601C62.3071 246.843 62.2411 247.136 62.2411 247.481C62.2411 247.826 62.3071 248.123 62.4391 248.372C62.5784 248.621 62.7764 248.812 63.0331 248.944C63.2898 249.076 63.5978 249.142 63.9571 249.142ZM82.7536 244.346V249.626L82.0716 248.955H83.8756V252.134H81.9396V250.132L82.8086 250.627H71.0826V244.346H73.3376V249.626L72.6556 248.955H76.3406L75.7906 249.626V244.346H78.0456V249.626L77.3636 248.955H81.0486L80.4986 249.626V244.346H82.7536ZM87.0004 250.627V244.346H89.2224V249.406L88.7384 249.252L92.0274 244.346H94.9094V250.627H92.6984V245.424L93.1824 245.589L89.8054 250.627H87.0004ZM98.3527 250.627V244.346H100.575V249.406L100.091 249.252L103.38 244.346H106.262V250.627H104.051V245.424L104.535 245.589L101.158 250.627H98.3527ZM102.247 243.818C101.477 243.818 100.861 243.635 100.399 243.268C99.9367 242.894 99.6507 242.359 99.5407 241.662H101.257C101.315 241.948 101.429 242.168 101.598 242.322C101.766 242.476 101.983 242.553 102.247 242.553C102.511 242.553 102.727 242.476 102.896 242.322C103.064 242.168 103.174 241.948 103.226 241.662H104.953C104.843 242.359 104.553 242.894 104.084 243.268C103.622 243.635 103.009 243.818 102.247 243.818ZM115.026 250.627V240.349H118.716V248.989L117.6 247.891H123.72L122.73 248.989V240.349H126.42V248.989L125.358 247.891H131.55L130.434 248.989V240.349H134.124V250.627H115.026ZM145.425 250.627L144.957 246.919L145.443 245.497L144.957 244.075L145.425 240.349H149.241L148.593 245.479L149.241 250.627H145.425ZM146.289 245.497C146.169 246.253 145.827 247.093 145.263 248.017C144.603 249.073 143.985 249.787 143.409 250.159C142.641 250.663 141.771 250.915 140.799 250.915C139.791 250.915 138.903 250.693 138.135 250.249C137.379 249.793 136.785 249.157 136.353 248.341C135.921 247.513 135.705 246.565 135.705 245.497C135.705 244.405 135.921 243.451 136.353 242.635C136.785 241.819 137.379 241.183 138.135 240.727C138.903 240.271 139.791 240.043 140.799 240.043C141.735 240.043 142.611 240.295 143.427 240.799C144.099 241.207 144.741 241.909 145.353 242.905C145.845 243.685 146.157 244.549 146.289 245.497ZM139.431 245.497C139.431 246.001 139.533 246.451 139.737 246.847C139.953 247.243 140.247 247.555 140.619 247.783C140.991 247.999 141.417 248.107 141.897 248.107C142.401 248.107 142.875 247.999 143.319 247.783C143.763 247.555 144.153 247.243 144.489 246.847C144.825 246.451 145.077 246.001 145.245 245.497C145.077 244.981 144.825 244.525 144.489 244.129C144.153 243.733 143.763 243.421 143.319 243.193C142.875 242.965 142.401 242.851 141.897 242.851C141.417 242.851 140.991 242.965 140.619 243.193C140.247 243.421 139.953 243.733 139.737 244.129C139.533 244.525 139.431 244.981 139.431 245.497ZM159.972 240.349V243.121H153.006L154.698 241.429V250.627H151.008V240.349H159.972ZM169.046 250.803C168.32 250.803 167.682 250.711 167.132 250.528C166.59 250.337 166.164 250.07 165.856 249.725C165.548 249.373 165.383 248.959 165.361 248.482H167.528C167.572 248.746 167.723 248.948 167.979 249.087C168.243 249.226 168.599 249.296 169.046 249.296C169.479 249.296 169.813 249.241 170.047 249.131C170.282 249.021 170.399 248.856 170.399 248.636C170.399 248.438 170.297 248.295 170.091 248.207C169.886 248.119 169.56 248.075 169.112 248.075H168.001V246.865H169.079C169.475 246.865 169.769 246.814 169.959 246.711C170.15 246.608 170.245 246.469 170.245 246.293C170.245 246.095 170.139 245.945 169.926 245.842C169.714 245.732 169.42 245.677 169.046 245.677C168.636 245.677 168.306 245.743 168.056 245.875C167.814 246 167.675 246.187 167.638 246.436H165.482C165.504 246.018 165.658 245.637 165.944 245.292C166.238 244.947 166.652 244.672 167.187 244.467C167.723 244.262 168.372 244.159 169.134 244.159C169.809 244.159 170.399 244.24 170.905 244.401C171.411 244.555 171.804 244.771 172.082 245.05C172.368 245.321 172.511 245.633 172.511 245.985C172.511 246.256 172.423 246.513 172.247 246.755C172.079 246.99 171.8 247.177 171.411 247.316C171.023 247.455 170.502 247.525 169.849 247.525V247.338C170.759 247.301 171.455 247.404 171.939 247.646C172.423 247.888 172.665 248.269 172.665 248.79C172.665 249.171 172.522 249.516 172.236 249.824C171.958 250.125 171.547 250.363 171.004 250.539C170.469 250.715 169.816 250.803 169.046 250.803ZM181.507 250.627L181.221 248.361L181.518 247.492L181.221 246.623L181.507 244.346H183.839L183.443 247.481L183.839 250.627H181.507ZM182.035 247.492C181.962 247.954 181.753 248.467 181.408 249.032C181.005 249.677 180.627 250.114 180.275 250.341C179.806 250.649 179.274 250.803 178.68 250.803C178.064 250.803 177.522 250.667 177.052 250.396C176.59 250.117 176.227 249.729 175.963 249.23C175.699 248.724 175.567 248.145 175.567 247.492C175.567 246.825 175.699 246.242 175.963 245.743C176.227 245.244 176.59 244.856 177.052 244.577C177.522 244.298 178.064 244.159 178.68 244.159C179.252 244.159 179.788 244.313 180.286 244.621C180.697 244.87 181.089 245.299 181.463 245.908C181.764 246.385 181.955 246.913 182.035 247.492ZM177.844 247.492C177.844 247.8 177.907 248.075 178.031 248.317C178.163 248.559 178.343 248.75 178.57 248.889C178.798 249.021 179.058 249.087 179.351 249.087C179.659 249.087 179.949 249.021 180.22 248.889C180.492 248.75 180.73 248.559 180.935 248.317C181.141 248.075 181.295 247.8 181.397 247.492C181.295 247.177 181.141 246.898 180.935 246.656C180.73 246.414 180.492 246.223 180.22 246.084C179.949 245.945 179.659 245.875 179.351 245.875C179.058 245.875 178.798 245.945 178.57 246.084C178.343 246.223 178.163 246.414 178.031 246.656C177.907 246.898 177.844 247.177 177.844 247.492ZM197.79 246.59L197.812 246.249C198.45 246.264 199.004 246.348 199.473 246.502C199.942 246.649 200.28 246.883 200.485 247.206C200.69 247.521 200.793 247.888 200.793 248.306C200.793 248.753 200.69 249.153 200.485 249.505C200.28 249.85 199.972 250.125 199.561 250.33C199.158 250.528 198.652 250.627 198.043 250.627H191.949L192.587 246.392L191.949 242.377H197.823C198.586 242.377 199.18 242.557 199.605 242.916C200.03 243.268 200.243 243.759 200.243 244.39C200.243 244.735 200.162 245.065 200.001 245.38C199.84 245.695 199.579 245.963 199.22 246.183C198.868 246.396 198.391 246.531 197.79 246.59ZM194.204 250.099L193.324 249.032H197.427C197.757 249.032 198.014 248.951 198.197 248.79C198.38 248.629 198.472 248.405 198.472 248.119C198.472 247.833 198.373 247.606 198.175 247.437C197.977 247.261 197.684 247.173 197.295 247.173H193.907V245.611H196.987C197.251 245.611 197.471 245.534 197.647 245.38C197.83 245.219 197.922 245.002 197.922 244.731C197.922 244.511 197.845 244.331 197.691 244.192C197.537 244.045 197.317 243.972 197.031 243.972H193.335L194.204 242.905L194.765 246.392L194.204 250.099ZM209.603 250.627L209.317 248.361L209.614 247.492L209.317 246.623L209.603 244.346H211.935L211.539 247.481L211.935 250.627H209.603ZM210.131 247.492C210.057 247.954 209.848 248.467 209.504 249.032C209.1 249.677 208.723 250.114 208.371 250.341C207.901 250.649 207.37 250.803 206.776 250.803C206.16 250.803 205.617 250.667 205.148 250.396C204.686 250.117 204.323 249.729 204.059 249.23C203.795 248.724 203.663 248.145 203.663 247.492C203.663 246.825 203.795 246.242 204.059 245.743C204.323 245.244 204.686 244.856 205.148 244.577C205.617 244.298 206.16 244.159 206.776 244.159C207.348 244.159 207.883 244.313 208.382 244.621C208.792 244.87 209.185 245.299 209.559 245.908C209.859 246.385 210.05 246.913 210.131 247.492ZM205.94 247.492C205.94 247.8 206.002 248.075 206.127 248.317C206.259 248.559 206.438 248.75 206.666 248.889C206.893 249.021 207.153 249.087 207.447 249.087C207.755 249.087 208.044 249.021 208.316 248.889C208.587 248.75 208.825 248.559 209.031 248.317C209.236 248.075 209.39 247.8 209.493 247.492C209.39 247.177 209.236 246.898 209.031 246.656C208.825 246.414 208.587 246.223 208.316 246.084C208.044 245.945 207.755 245.875 207.447 245.875C207.153 245.875 206.893 245.945 206.666 246.084C206.438 246.223 206.259 246.414 206.127 246.656C206.002 246.898 205.94 247.177 205.94 247.492ZM215.214 250.627V244.346H218.591L220.538 249.406H219.911L221.825 244.346H225.202V250.627H223.101V245.193H223.464L221.242 250.627H219.185L216.963 245.215L217.326 245.193V250.627H215.214ZM228.651 250.627V244.346H230.873V249.406L230.389 249.252L233.678 244.346H236.56V250.627H234.349V245.424L234.833 245.589L231.456 250.627H228.651ZM241.037 250.737C240.802 250.737 240.586 250.682 240.388 250.572C240.197 250.462 240.047 250.312 239.937 250.121C239.827 249.923 239.772 249.707 239.772 249.472C239.772 249.237 239.827 249.025 239.937 248.834C240.047 248.643 240.197 248.493 240.388 248.383C240.586 248.266 240.802 248.207 241.037 248.207C241.279 248.207 241.495 248.266 241.686 248.383C241.877 248.493 242.027 248.643 242.137 248.834C242.247 249.025 242.302 249.237 242.302 249.472C242.302 249.707 242.247 249.923 242.137 250.121C242.027 250.312 241.877 250.462 241.686 250.572C241.495 250.682 241.279 250.737 241.037 250.737Z" fill="#0A0905"/>
</svg>
